<?xml version="1.0" standalone="no"?>
<!DOCTYPE svg PUBLIC "-//W3C//DTD SVG 20010904//EN"
 "http://www.w3.org/TR/2001/REC-SVG-20010904/DTD/svg10.dtd">
<svg version="1.0" xmlns="http://www.w3.org/2000/svg"
 width="500.000000pt" height="200.000000pt" viewBox="0 0 500.000000 200.000000"
 preserveAspectRatio="xMidYMid meet">

<g transform="translate(0.000000,200.000000) scale(0.100000,-0.100000)"
fill="#000000" stroke="none">
<path d="M486 1869 c-17 -13 -28 -34 -32 -59 l-6 -39 -157 -3 c-143 -3 -159
-5 -187 -25 -67 -48 -64 -16 -64 -803 0 -787 -3 -755 64 -803 l31 -22 600 0
600 0 31 22 c67 48 64 15 64 808 0 702 0 718 -20 750 -39 63 -59 69 -230 75
l-154 5 -7 33 c-4 18 -17 44 -30 58 l-22 24 -227 0 c-215 0 -229 -1 -254 -21z
m-36 -223 c0 -14 11 -38 24 -53 l24 -28 231 -3 231 -3 30 30 c18 17 30 40 30
55 l0 26 133 0 c104 0 137 -3 155 -16 l22 -15 0 -695 c0 -681 0 -694 -20 -714
-20 -20 -33 -20 -573 -20 -484 0 -555 2 -575 16 l-22 15 0 693 c0 718 0 715
40 729 8 3 72 6 143 6 l127 1 0 -24z"/>
<path d="M472 1384 l-82 -76 -45 41 c-24 22 -48 41 -53 41 -20 0 -52 -33 -52
-55 0 -30 123 -155 153 -155 12 0 63 42 131 109 105 105 110 111 100 138 -7
21 -17 29 -39 30 -25 3 -44 -10 -113 -73z"/>
<path d="M712 1378 c-19 -19 -15 -66 7 -78 12 -6 109 -10 245 -10 191 0 227 2
240 16 19 18 21 55 4 72 -17 17 -479 17 -496 0z"/>
<path d="M555 1108 c-11 -6 -52 -42 -92 -81 l-72 -70 -40 36 c-23 20 -49 37
-59 37 -29 0 -55 -35 -48 -63 8 -33 119 -137 147 -137 27 0 227 193 236 229 4
18 0 29 -17 43 -26 21 -28 21 -55 6z"/>
<path d="M712 1038 c-19 -19 -14 -55 10 -72 19 -13 59 -16 238 -16 179 0 219
3 238 16 24 17 29 53 10 72 -17 17 -479 17 -496 0z"/>
<path d="M497 797 c-10 -6 -21 -26 -25 -42 -8 -27 -13 -30 -54 -33 -27 -2 -52
-10 -60 -19 -17 -21 -16 -267 2 -288 6 -8 33 -15 58 -17 42 -3 47 -6 50 -28 6
-39 31 -60 73 -60 57 0 79 34 79 121 l0 69 155 0 155 0 0 -75 c0 -88 17 -115
73 -115 38 0 61 20 71 63 6 24 11 27 50 27 69 0 76 14 76 162 0 144 -5 154
-80 160 -41 3 -45 6 -48 30 -7 56 -75 76 -117 33 -22 -21 -25 -33 -25 -95 l0
-70 -154 0 -154 0 -4 76 c-3 65 -7 79 -27 95 -27 22 -69 25 -94 6z"/>
<path d="M3340 1390 l0 -300 55 0 55 0 0 101 0 101 55 -77 c31 -42 63 -87 73
-101 15 -21 25 -23 86 -24 l69 0 -20 23 c-12 12 -53 64 -92 116 l-70 93 72 87
c100 118 99 111 28 111 l-59 0 -69 -84 -68 -85 -3 170 -2 169 -55 0 -55 0 0
-300z"/>
<path d="M1730 1668 c0 -7 5 -29 10 -48 6 -19 36 -129 66 -245 30 -115 59
-227 65 -247 l10 -38 57 0 57 0 59 206 c42 144 62 201 67 188 4 -10 32 -102
62 -204 l55 -185 59 0 58 0 31 120 c18 66 52 198 77 293 l45 172 -58 0 -58 0
-16 -72 c-49 -222 -80 -348 -86 -348 -4 0 -22 53 -39 118 -18 64 -44 159 -58
210 l-27 92 -52 0 c-48 0 -52 -2 -58 -27 -23 -97 -110 -402 -114 -399 -3 4
-17 63 -81 346 l-17 75 -57 3 c-42 2 -57 0 -57 -10z"/>
<path d="M4760 1580 l0 -60 -35 0 c-35 0 -35 0 -35 -45 0 -45 0 -45 34 -45
l34 0 4 -140 3 -140 31 -31 c33 -32 90 -47 138 -35 23 6 26 11 26 51 l0 44
-42 3 -43 3 -3 123 -3 122 46 0 45 0 0 45 0 45 -45 0 -45 0 0 60 0 60 -55 0
-55 0 0 -60z"/>
<path d="M2667 1516 c-102 -28 -151 -97 -151 -211 0 -86 28 -144 92 -190 40
-27 51 -30 121 -30 68 0 83 3 119 27 103 68 128 218 56 328 -45 68 -147 101
-237 76z m98 -90 c48 -20 66 -54 66 -122 0 -94 -56 -148 -132 -125 -103 31
-98 229 6 254 11 3 21 5 23 6 1 0 18 -5 37 -13z"/>
<path d="M3910 1521 c-130 -26 -200 -155 -159 -292 56 -185 318 -201 400 -24
23 50 25 142 3 193 -38 93 -139 144 -244 123z m85 -95 c47 -20 68 -65 63 -133
-8 -91 -69 -142 -137 -113 -46 19 -65 56 -66 127 0 52 4 65 25 88 23 25 52 43
73 44 4 1 23 -5 42 -13z"/>
<path d="M3020 1305 l0 -215 50 0 50 0 0 124 c0 69 4 136 10 150 13 34 63 59
111 54 l39 -4 0 53 0 53 -44 0 c-29 0 -55 -8 -80 -25 l-36 -24 0 24 c0 23 -3
25 -50 25 l-50 0 0 -215z"/>
<path d="M4242 1347 c2 -146 6 -177 21 -200 44 -68 128 -85 210 -43 44 22 47
22 47 5 0 -16 8 -19 55 -19 l55 0 0 215 0 215 -55 0 -55 0 0 -140 c0 -82 -5
-149 -11 -164 -15 -31 -59 -50 -98 -41 -54 12 -61 33 -61 197 l0 148 -56 0
-56 0 4 -173z"/>
<path d="M2280 595 l0 -295 55 0 55 0 0 295 0 295 -55 0 -55 0 0 -295z"/>
<path d="M1770 590 l0 -290 60 0 60 0 0 94 0 93 80 6 c146 11 219 67 228 172
8 93 -29 163 -102 196 -34 15 -66 19 -183 19 l-143 0 0 -290z m294 159 c29
-35 33 -67 11 -108 -18 -35 -60 -51 -136 -51 l-59 0 0 95 0 95 79 0 c76 0 80
-1 105 -31z"/>
<path d="M2591 729 c-67 -20 -111 -67 -111 -119 0 -17 6 -20 43 -20 36 0 47 5
65 30 19 25 29 30 66 30 49 0 76 -22 76 -62 0 -24 -3 -25 -81 -32 -139 -12
-189 -48 -189 -138 0 -41 5 -54 28 -78 57 -57 146 -63 216 -15 l36 24 0 -24
c0 -23 3 -25 50 -25 l50 0 0 158 c0 144 -2 160 -23 197 -13 24 -37 47 -59 58
-45 22 -122 30 -167 16z m139 -269 c0 -47 -39 -80 -93 -80 -51 0 -70 16 -65
57 4 36 38 53 106 53 51 0 52 0 52 -30z"/>
<path d="M3100 725 c-19 -9 -42 -23 -52 -32 -17 -15 -18 -14 -18 10 0 26 -3
27 -50 27 l-50 0 0 -215 0 -215 49 0 49 0 4 146 3 146 33 29 c39 35 72 37 109
5 l28 -24 3 -151 3 -151 50 0 49 0 0 168 c0 148 -2 171 -20 199 -10 18 -30 39
-43 47 -36 24 -106 29 -147 11z"/>
<path d="M3588 731 c-15 -5 -41 -19 -58 -31 l-30 -21 0 25 c0 24 -3 26 -50 26
l-50 0 0 -215 0 -215 55 0 55 0 0 144 c0 138 1 146 24 172 30 36 86 39 119 6
20 -21 22 -33 25 -172 l3 -150 56 0 55 0 -4 163 c-4 180 -16 225 -68 252 -37
19 -98 26 -132 16z"/>
<path d="M3999 727 c-97 -36 -139 -101 -139 -213 0 -93 27 -148 92 -188 88
-53 192 -44 260 24 52 52 50 70 -8 70 -31 0 -54 -7 -71 -20 -55 -43 -143 -14
-159 53 l-6 27 146 0 146 0 0 50 c0 82 -39 153 -101 185 -40 21 -119 27 -160
12z m106 -83 c16 -6 45 -54 45 -74 0 -6 -34 -10 -90 -10 -101 0 -108 7 -64 59
26 31 68 41 109 25z"/>
<path d="M4340 515 l0 -215 55 0 55 0 0 144 c0 144 0 145 26 165 17 13 41 21
65 21 l39 0 0 50 0 50 -35 0 c-39 0 -90 -22 -98 -42 -3 -7 -6 -1 -6 15 -1 26
-3 27 -51 27 l-50 0 0 -215z"/>
</g>
</svg>
