<?xml version="1.0" standalone="no"?>
<!DOCTYPE svg PUBLIC "-//W3C//DTD SVG 20010904//EN"
 "http://www.w3.org/TR/2001/REC-SVG-20010904/DTD/svg10.dtd">
<svg version="1.0" xmlns="http://www.w3.org/2000/svg"
 width="2182.000000pt" height="1354.000000pt" viewBox="0 0 2182.000000 1354.000000"
 preserveAspectRatio="xMidYMid meet">

<g transform="translate(0.000000,1354.000000) scale(0.100000,-0.100000)"
fill="#000000" stroke="none">
<path d="M8640 13490 c0 -6 -27 -10 -60 -10 -33 0 -60 -4 -60 -10 0 -5 -18
-10 -40 -10 -22 0 -40 -4 -40 -10 0 -5 -13 -10 -30 -10 -16 0 -30 -4 -30 -10
0 -5 -9 -10 -20 -10 -11 0 -20 -4 -20 -10 0 -5 -13 -10 -30 -10 -16 0 -30 -4
-30 -10 0 -5 -8 -10 -18 -10 -10 0 -24 -9 -32 -20 -8 -11 -22 -20 -32 -20 -10
0 -18 -4 -18 -10 0 -5 -8 -10 -18 -10 -10 0 -24 -9 -32 -20 -8 -11 -20 -20
-27 -20 -17 0 -243 -226 -243 -243 0 -7 -9 -19 -20 -27 -11 -8 -20 -21 -20
-30 0 -9 -9 -22 -20 -30 -11 -8 -20 -22 -20 -32 0 -10 -4 -18 -10 -18 -5 0
-10 -9 -10 -20 0 -11 -4 -20 -10 -20 -5 0 -10 -9 -10 -20 0 -11 -4 -20 -10
-20 -5 0 -10 -13 -10 -30 0 -16 -4 -30 -10 -30 -5 0 -10 -13 -10 -30 0 -16 -4
-30 -10 -30 -5 0 -10 -16 -10 -36 0 -65 6 -64 -354 -64 -211 0 -326 -4 -326
-10 0 -5 -13 -10 -30 -10 -16 0 -30 -4 -30 -10 0 -5 -9 -10 -20 -10 -11 0 -20
-4 -20 -10 0 -5 -9 -10 -20 -10 -11 0 -20 -4 -20 -10 0 -5 -7 -10 -15 -10 -20
0 -105 -85 -105 -105 0 -8 -4 -15 -10 -15 -5 0 -10 -9 -10 -20 0 -11 -4 -20
-10 -20 -5 0 -10 -9 -10 -20 0 -11 -4 -20 -10 -20 -5 0 -10 -13 -10 -30 0 -16
-4 -30 -10 -30 -5 0 -10 -13 -10 -30 l0 -30 -550 0 c-360 0 -550 -3 -550 -10
0 -5 -22 -10 -50 -10 -27 0 -50 -4 -50 -10 0 -5 -13 -10 -30 -10 -16 0 -30 -4
-30 -10 0 -5 -13 -10 -30 -10 -16 0 -30 -4 -30 -10 0 -5 -9 -10 -20 -10 -11 0
-20 -4 -20 -10 0 -5 -9 -10 -20 -10 -11 0 -20 -4 -20 -10 0 -5 -9 -10 -20 -10
-11 0 -20 -4 -20 -10 0 -5 -8 -10 -18 -10 -10 0 -24 -9 -32 -20 -8 -11 -20
-20 -27 -20 -17 0 -223 -206 -223 -223 0 -7 -9 -19 -20 -27 -11 -8 -20 -22
-20 -32 0 -10 -4 -18 -10 -18 -5 0 -10 -9 -10 -20 0 -11 -4 -20 -10 -20 -5 0
-10 -9 -10 -20 0 -11 -4 -20 -10 -20 -5 0 -10 -9 -10 -20 0 -11 -4 -20 -10
-20 -5 0 -10 -13 -10 -30 0 -16 -4 -30 -10 -30 -5 0 -10 -13 -10 -30 0 -16 -4
-30 -10 -30 -5 0 -10 -22 -10 -50 0 -27 -4 -50 -10 -50 -7 0 -10 -1227 -10
-3660 0 -2433 3 -3660 10 -3660 6 0 10 -22 10 -50 0 -27 5 -50 10 -50 6 0 10
-13 10 -30 0 -16 5 -30 10 -30 6 0 10 -13 10 -30 0 -16 5 -30 10 -30 6 0 10
-9 10 -20 0 -11 5 -20 10 -20 6 0 10 -9 10 -20 0 -11 5 -20 10 -20 6 0 10 -9
10 -20 0 -11 5 -20 10 -20 6 0 10 -7 10 -16 0 -9 14 -29 30 -44 17 -15 30 -33
30 -39 0 -16 167 -181 183 -181 7 0 19 -9 27 -20 8 -11 21 -20 30 -20 9 0 22
-9 30 -20 8 -11 22 -20 32 -20 10 0 18 -4 18 -10 0 -5 9 -10 20 -10 11 0 20
-4 20 -10 0 -5 14 -10 30 -10 17 0 30 -4 30 -10 0 -5 14 -10 30 -10 17 0 30
-4 30 -10 0 -5 14 -10 30 -10 17 0 30 -4 30 -10 0 -6 27 -10 60 -10 33 0 60
-4 60 -10 0 -7 1013 -10 3020 -10 2007 0 3020 3 3020 10 0 6 27 10 60 10 33 0
60 4 60 10 0 6 9 10 20 10 11 0 20 5 20 10 0 6 -22 10 -50 10 -27 0 -50 5 -50
10 0 6 -18 10 -40 10 -22 0 -40 5 -40 10 0 6 -13 10 -30 10 -16 0 -30 5 -30
10 0 6 -9 10 -20 10 -11 0 -20 5 -20 10 0 6 -9 10 -20 10 -11 0 -20 5 -20 10
0 6 -9 10 -20 10 -11 0 -20 5 -20 10 0 6 -8 10 -18 10 -10 0 -24 9 -32 20 -8
11 -20 20 -27 20 -17 0 -183 166 -183 183 0 7 -9 19 -20 27 -11 8 -20 22 -20
32 0 10 -4 18 -10 18 -5 0 -10 9 -10 20 0 20 -7 20 -2710 20 -1800 0 -2710 3
-2710 10 0 6 -27 10 -60 10 -33 0 -60 4 -60 10 0 6 -9 10 -20 10 -11 0 -20 5
-20 10 0 6 -9 10 -20 10 -11 0 -20 5 -20 10 0 6 -7 10 -15 10 -20 0 -145 125
-145 145 0 8 -4 15 -10 15 -5 0 -10 9 -10 20 0 11 -4 20 -10 20 -5 0 -10 9
-10 20 0 11 -4 20 -10 20 -5 0 -10 23 -10 50 0 28 -4 50 -10 50 -7 0 -10 1180
-10 3520 0 2340 3 3520 10 3520 6 0 10 23 10 50 0 28 5 50 10 50 6 0 10 14 10
30 0 17 5 30 10 30 6 0 10 9 10 20 0 11 5 20 10 20 6 0 10 7 10 15 0 20 145
165 165 165 8 0 15 5 15 10 0 6 9 10 20 10 11 0 20 5 20 10 0 6 14 10 30 10
17 0 30 5 30 10 0 6 23 10 50 10 28 0 50 5 50 10 0 7 159 10 456 10 412 0 457
-2 472 -17 12 -12 13 -18 4 -21 -15 -5 -17 -122 -2 -122 6 0 10 -37 10 -90 0
-53 4 -90 10 -90 6 0 10 -13 10 -30 0 -16 5 -30 10 -30 6 0 10 -8 10 -18 0
-10 9 -24 20 -32 11 -8 20 -20 20 -27 0 -17 126 -143 143 -143 7 0 19 -9 27
-20 8 -12 26 -20 42 -20 15 0 28 -4 28 -10 0 -5 14 -10 30 -10 17 0 30 -4 30
-10 0 -7 583 -10 1730 -10 1147 0 1730 3 1730 10 0 6 18 10 40 10 22 0 40 5
40 10 0 6 9 10 20 10 11 0 20 5 20 10 0 6 7 10 15 10 19 0 165 144 165 163 0
7 9 19 20 27 12 8 20 26 20 42 0 15 5 28 10 28 6 0 10 14 10 30 0 17 5 30 10
30 6 0 10 60 10 160 l0 160 480 0 c313 0 480 -3 480 -10 0 -5 23 -10 50 -10
28 0 50 -4 50 -10 0 -5 9 -10 20 -10 11 0 20 -4 20 -10 0 -5 9 -10 20 -10 11
0 20 -4 20 -10 0 -5 7 -10 16 -10 9 0 29 -13 44 -30 15 -16 35 -30 44 -30 9 0
16 -7 16 -16 0 -9 14 -29 30 -44 17 -15 30 -35 30 -44 0 -9 5 -16 10 -16 6 0
10 -9 10 -20 0 -11 5 -20 10 -20 6 0 10 -13 10 -30 0 -16 5 -30 10 -30 7 0 10
-473 10 -1400 l0 -1400 110 0 c67 0 110 -4 110 -10 0 -5 23 -10 50 -10 28 0
50 -4 50 -10 0 -5 14 -10 30 -10 17 0 30 -4 30 -10 0 -5 14 -10 30 -10 17 0
30 -4 30 -10 0 -5 9 -10 20 -10 11 0 20 -4 20 -10 0 -5 9 -10 20 -10 11 0 20
-4 20 -10 0 -5 5 -10 10 -10 7 0 10 490 10 1450 0 960 -3 1450 -10 1450 -6 0
-10 30 -10 70 0 40 -4 70 -10 70 -5 0 -10 18 -10 40 0 22 -4 40 -10 40 -5 0
-10 14 -10 30 0 17 -4 30 -10 30 -5 0 -10 9 -10 20 0 11 -4 20 -10 20 -5 0
-10 9 -10 20 0 11 -4 20 -10 20 -5 0 -10 9 -10 20 0 11 -4 20 -10 20 -5 0 -10
8 -10 18 0 10 -9 24 -20 32 -11 8 -20 20 -20 27 0 17 -226 243 -243 243 -7 0
-19 9 -27 20 -8 11 -22 20 -32 20 -10 0 -18 5 -18 10 0 6 -9 10 -20 10 -11 0
-20 5 -20 10 0 6 -9 10 -20 10 -11 0 -20 5 -20 10 0 6 -9 10 -20 10 -11 0 -20
5 -20 10 0 6 -13 10 -30 10 -16 0 -30 5 -30 10 0 6 -13 10 -30 10 -16 0 -30 5
-30 10 0 6 -22 10 -50 10 -27 0 -50 5 -50 10 0 7 -187 10 -540 10 l-540 0 0
40 c0 22 -4 40 -10 40 -5 0 -10 14 -10 30 0 17 -4 30 -10 30 -5 0 -10 8 -10
18 0 10 -9 24 -20 32 -11 8 -20 20 -20 27 0 17 -86 103 -103 103 -7 0 -19 9
-27 20 -8 12 -26 20 -42 20 -15 0 -28 5 -28 10 0 6 -13 10 -30 10 -16 0 -30 5
-30 10 0 6 -120 10 -340 10 -333 0 -340 0 -340 20 0 11 -4 20 -10 20 -5 0 -10
18 -10 40 0 22 -4 40 -10 40 -5 0 -10 14 -10 30 0 17 -4 30 -10 30 -5 0 -10 9
-10 20 0 11 -4 20 -10 20 -5 0 -10 14 -10 30 0 17 -4 30 -10 30 -5 0 -10 8
-10 18 0 10 -9 24 -20 32 -11 8 -20 22 -20 32 0 10 -4 18 -10 18 -5 0 -10 7
-10 16 0 9 -13 29 -30 44 -16 15 -30 33 -30 39 0 15 -146 161 -161 161 -6 0
-24 14 -39 30 -15 17 -34 30 -42 30 -7 0 -20 9 -28 20 -8 11 -22 20 -32 20
-10 0 -18 5 -18 10 0 6 -9 10 -20 10 -11 0 -20 5 -20 10 0 6 -9 10 -20 10 -11
0 -20 5 -20 10 0 6 -9 10 -20 10 -11 0 -20 5 -20 10 0 6 -13 10 -30 10 -16 0
-30 5 -30 10 0 6 -13 10 -30 10 -16 0 -30 5 -30 10 0 6 -13 10 -30 10 -16 0
-30 5 -30 10 0 6 -27 10 -60 10 -33 0 -60 4 -60 10 0 6 -50 10 -130 10 -80 0
-130 -4 -130 -10z m160 -560 c0 -5 18 -10 40 -10 22 0 40 -4 40 -10 0 -5 11
-10 25 -10 18 0 47 -21 100 -75 54 -53 75 -82 75 -100 0 -14 5 -25 10 -25 6 0
10 -13 10 -30 0 -16 5 -30 10 -30 6 0 10 -22 10 -50 0 -27 -4 -50 -10 -50 -5
0 -10 -18 -10 -40 0 -22 -4 -40 -10 -40 -5 0 -10 -8 -10 -18 0 -10 -9 -24 -20
-32 -11 -8 -20 -20 -20 -28 0 -18 -66 -82 -85 -82 -8 0 -15 -4 -15 -10 0 -5
-9 -10 -20 -10 -11 0 -20 -4 -20 -10 0 -5 -9 -10 -20 -10 -11 0 -20 -4 -20
-10 0 -6 -37 -10 -90 -10 -53 0 -90 4 -90 10 0 6 -13 10 -28 10 -16 0 -34 8
-42 20 -8 11 -20 20 -27 20 -19 0 -123 106 -123 125 0 8 -4 15 -10 15 -5 0
-10 14 -10 30 0 17 -4 30 -10 30 -6 0 -10 37 -10 90 0 53 4 90 10 90 6 0 10
13 10 28 0 16 8 34 20 42 11 8 20 20 20 27 0 19 86 103 105 103 8 0 15 5 15
10 0 6 9 10 20 10 11 0 20 5 20 10 0 6 18 10 40 10 22 0 40 5 40 10 0 6 18 10
40 10 22 0 40 -4 40 -10z"/>
<path d="M7540 10170 c0 -5 -7 -10 -15 -10 -17 0 -205 -184 -205 -200 0 -6
-58 -69 -130 -140 -71 -71 -130 -134 -130 -140 0 -6 -54 -64 -120 -130 -66
-66 -120 -124 -120 -130 0 -14 -126 -140 -140 -140 -6 0 -82 72 -170 160 -88
88 -166 160 -175 160 -8 0 -15 5 -15 10 0 6 -35 10 -85 10 l-85 0 -55 -55
c-38 -37 -55 -63 -55 -80 0 -14 -4 -25 -10 -25 -5 0 -10 -18 -10 -40 0 -22 5
-40 10 -40 6 0 10 -12 10 -26 0 -16 12 -37 30 -54 17 -15 30 -33 30 -39 0 -17
448 -461 465 -461 8 0 15 -4 15 -10 0 -5 9 -10 20 -10 11 0 20 -4 20 -10 0 -6
27 -10 60 -10 33 0 60 4 60 10 0 6 11 10 25 10 18 0 47 21 100 75 41 41 75 79
75 85 0 6 50 60 110 120 61 60 110 114 110 120 0 6 50 60 110 120 61 60 110
114 110 120 0 6 45 55 100 110 55 55 100 104 100 110 0 6 45 55 100 110 55 55
100 105 100 112 0 8 9 20 20 28 17 12 20 26 20 92 0 45 -4 78 -10 78 -5 0 -10
7 -10 15 0 20 -65 85 -85 85 -8 0 -15 5 -15 10 0 6 -33 10 -80 10 -47 0 -80
-4 -80 -10z"/>
<path d="M8260 9910 c0 -5 -11 -10 -25 -10 -28 0 -135 -99 -135 -125 0 -8 -4
-15 -10 -15 -6 0 -10 -33 -10 -80 0 -47 4 -80 10 -80 6 0 10 -11 10 -25 0 -29
59 -95 85 -95 8 0 15 -4 15 -10 0 -5 9 -10 20 -10 11 0 20 -4 20 -10 0 -7 513
-10 1520 -10 1007 0 1520 3 1520 10 0 6 13 10 28 10 16 0 34 8 42 20 8 11 22
20 32 20 11 0 18 7 18 18 0 10 9 24 20 32 12 8 20 26 20 42 0 15 5 28 10 28 6
0 10 27 10 60 0 33 -4 60 -10 60 -5 0 -10 11 -10 25 0 35 -100 135 -135 135
-14 0 -25 5 -25 10 0 7 -510 10 -1510 10 -1000 0 -1510 -3 -1510 -10z"/>
<path d="M7303 7894 c-90 -90 -163 -169 -163 -174 0 -6 -63 -73 -140 -150 -77
-77 -140 -144 -140 -150 0 -6 -20 -31 -45 -56 l-45 -44 -170 170 c-93 93 -176
170 -185 170 -8 0 -15 5 -15 10 0 6 -9 10 -20 10 -11 0 -20 5 -20 10 0 6 -27
10 -60 10 -33 0 -60 -4 -60 -10 0 -5 -11 -10 -25 -10 -35 0 -115 -80 -115
-115 0 -14 -4 -25 -10 -25 -6 0 -10 -27 -10 -60 0 -33 4 -60 10 -60 6 0 10
-11 10 -25 0 -19 49 -75 215 -240 118 -118 220 -215 225 -215 6 0 38 -27 70
-60 42 -42 66 -60 84 -60 15 0 26 -4 26 -10 0 -6 27 -10 60 -10 33 0 60 4 60
10 0 6 7 10 15 10 17 0 385 364 385 380 0 6 63 73 140 150 77 77 140 144 140
150 0 6 45 55 100 110 55 55 100 105 100 112 0 8 9 20 20 28 17 13 20 26 20
102 0 52 -4 88 -10 88 -5 0 -10 7 -10 15 0 20 -65 85 -85 85 -8 0 -15 5 -15
10 0 6 -35 10 -87 9 l-88 -1 -162 -164z"/>
<path d="M11840 8030 c0 -5 -18 -10 -40 -10 -22 0 -40 -4 -40 -10 0 -5 -7 -10
-16 -10 -9 0 -29 -13 -44 -30 -15 -16 -35 -30 -44 -30 -9 0 -16 -8 -16 -18 0
-10 -9 -24 -20 -32 -11 -8 -20 -22 -20 -32 0 -10 -4 -18 -10 -18 -5 0 -10 -18
-10 -40 0 -22 -4 -40 -10 -40 -7 0 -10 -623 -10 -1850 0 -1227 3 -1850 10
-1850 6 0 10 -18 10 -40 0 -22 5 -40 10 -40 6 0 10 -8 10 -18 0 -10 9 -24 20
-32 11 -8 20 -20 20 -28 0 -17 25 -42 42 -42 8 0 20 -9 28 -20 8 -11 22 -20
32 -20 10 0 18 -4 18 -10 0 -6 73 -10 200 -10 127 0 200 -4 200 -10 0 -6 40
-10 100 -10 60 0 100 4 100 10 0 6 23 10 50 10 28 0 50 5 50 10 0 6 9 10 20
10 11 0 20 5 20 10 0 6 7 10 15 10 20 0 105 85 105 105 0 8 5 15 10 15 6 0 10
14 10 30 0 17 5 30 10 30 7 0 10 637 10 1890 0 1253 -3 1890 -10 1890 -5 0
-10 13 -10 28 0 16 -8 34 -20 42 -11 8 -20 20 -20 28 0 18 -66 82 -85 82 -8 0
-15 5 -15 10 0 6 -9 10 -20 10 -11 0 -20 5 -20 10 0 6 -18 10 -40 10 -22 0
-40 5 -40 10 0 6 -97 10 -270 10 -173 0 -270 -4 -270 -10z"/>
<path d="M15960 8030 c0 -5 -13 -10 -30 -10 -16 0 -30 -4 -30 -10 0 -5 -7 -10
-15 -10 -20 0 -105 -85 -105 -105 0 -8 -4 -15 -10 -15 -5 0 -10 -9 -10 -20 0
-11 -4 -20 -10 -20 -7 0 -10 -643 -10 -1910 0 -1267 3 -1910 10 -1910 6 0 10
-13 10 -30 0 -16 5 -30 10 -30 6 0 10 -7 10 -15 0 -20 85 -105 105 -105 8 0
15 -4 15 -10 0 -5 14 -10 30 -10 17 0 30 -4 30 -10 0 -6 113 -10 320 -10 207
0 320 4 320 10 0 6 14 10 30 10 17 0 30 5 30 10 0 6 7 10 15 10 20 0 125 105
125 125 0 8 5 15 10 15 6 0 10 18 10 40 0 22 5 40 10 40 7 0 10 627 10 1860 0
1233 -3 1860 -10 1860 -5 0 -10 14 -10 30 0 17 -4 30 -10 30 -5 0 -10 9 -10
20 0 11 -4 20 -10 20 -5 0 -10 7 -10 15 0 20 -85 105 -105 105 -8 0 -15 5 -15
10 0 6 -13 10 -30 10 -16 0 -30 5 -30 10 0 6 -113 10 -320 10 -207 0 -320 -4
-320 -10z"/>
<path d="M8280 8010 c0 -5 -13 -10 -30 -10 -16 0 -30 -4 -30 -10 0 -5 -7 -10
-15 -10 -20 0 -85 -65 -85 -85 0 -8 -4 -15 -10 -15 -5 0 -10 -9 -10 -20 0 -11
-4 -20 -10 -20 -6 0 -10 -27 -10 -60 0 -33 4 -60 10 -60 6 0 10 -13 10 -30 0
-16 5 -30 10 -30 6 0 10 -7 10 -15 0 -19 44 -65 62 -65 8 0 20 -9 28 -20 8
-12 26 -20 42 -20 15 0 28 -4 28 -10 0 -7 347 -10 1020 -10 673 0 1020 3 1020
10 0 6 14 10 30 10 17 0 30 5 30 10 0 6 7 10 15 10 20 0 105 85 105 105 0 8 5
15 10 15 6 0 10 37 10 90 0 53 -4 90 -10 90 -5 0 -10 7 -10 15 0 20 -85 105
-105 105 -8 0 -15 5 -15 10 0 6 -13 10 -30 10 -16 0 -30 5 -30 10 0 7 -347 10
-1020 10 -673 0 -1020 -3 -1020 -10z"/>
<path d="M10760 7290 c0 -5 -13 -10 -28 -10 -16 0 -34 -8 -42 -20 -8 -11 -20
-20 -28 -20 -17 0 -62 -45 -62 -62 0 -8 -9 -20 -20 -28 -12 -8 -20 -26 -20
-42 0 -15 -4 -28 -10 -28 -6 0 -10 -120 -10 -340 l0 -340 -110 0 c-67 0 -110
-4 -110 -10 0 -5 -13 -10 -30 -10 -16 0 -30 -4 -30 -10 0 -5 -7 -10 -15 -10
-20 0 -85 -65 -85 -85 0 -8 -4 -15 -10 -15 -5 0 -10 -13 -10 -30 0 -16 -4 -30
-10 -30 -6 0 -10 -97 -10 -270 0 -173 4 -270 10 -270 6 0 10 -18 10 -40 0 -22
5 -40 10 -40 6 0 10 -7 10 -15 0 -26 66 -85 95 -85 14 0 25 -4 25 -10 0 -5 18
-10 40 -10 22 0 40 -4 40 -10 0 -6 37 -10 90 -10 l90 0 0 -340 c0 -220 4 -340
10 -340 6 0 10 -13 10 -30 0 -16 5 -30 10 -30 6 0 10 -7 10 -15 0 -20 85 -105
105 -105 8 0 15 -4 15 -10 0 -5 9 -10 20 -10 11 0 20 -4 20 -10 0 -6 97 -10
270 -10 173 0 270 4 270 10 0 6 7 10 15 10 20 0 85 65 85 85 0 8 5 15 10 15 7
0 10 423 10 1250 0 827 -3 1250 -10 1250 -5 0 -10 9 -10 20 0 11 -4 20 -10 20
-5 0 -10 7 -10 16 0 20 -24 44 -44 44 -9 0 -16 5 -16 10 0 6 -9 10 -20 10 -11
0 -20 5 -20 10 0 6 -90 10 -250 10 -160 0 -250 -4 -250 -10z"/>
<path d="M17120 7290 c0 -5 -7 -10 -15 -10 -20 0 -85 -65 -85 -85 0 -8 -4 -15
-10 -15 -7 0 -10 -427 -10 -1260 0 -833 3 -1260 10 -1260 6 0 10 -7 10 -15 0
-20 65 -85 85 -85 8 0 15 -4 15 -10 0 -6 100 -10 280 -10 180 0 280 4 280 10
0 6 7 10 15 10 20 0 125 105 125 125 0 8 5 15 10 15 6 0 10 14 10 30 0 17 5
30 10 30 6 0 10 120 10 340 l0 340 90 0 c53 0 90 4 90 10 0 6 23 10 50 10 28
0 50 5 50 10 0 6 7 10 15 10 20 0 105 85 105 105 0 8 5 15 10 15 6 0 10 113
10 320 0 207 -4 320 -10 320 -5 0 -10 8 -10 18 0 10 -9 24 -20 32 -11 8 -20
22 -20 32 0 11 -7 18 -18 18 -10 0 -24 9 -32 20 -10 14 -26 20 -52 20 -21 0
-38 5 -38 10 0 6 -43 10 -110 10 l-110 0 0 320 c0 207 -4 320 -10 320 -5 0
-10 18 -10 40 0 22 -4 40 -10 40 -5 0 -10 7 -10 15 0 20 -105 125 -125 125 -8
0 -15 5 -15 10 0 6 -9 10 -20 10 -11 0 -20 5 -20 10 0 6 -93 10 -260 10 -167
0 -260 -4 -260 -10z"/>
<path d="M12880 5924 c0 -399 2 -478 14 -490 13 -12 202 -14 1320 -14 l1306 0
0 490 0 490 -1320 0 -1320 0 0 -476z"/>
<path d="M8300 6110 c0 -5 -18 -10 -40 -10 -22 0 -40 -4 -40 -10 0 -5 -7 -10
-15 -10 -20 0 -85 -65 -85 -85 0 -8 -4 -15 -10 -15 -5 0 -10 -13 -10 -30 0
-16 -4 -30 -10 -30 -5 0 -10 -22 -10 -50 0 -27 5 -50 10 -50 6 0 10 -13 10
-28 0 -16 8 -34 20 -42 11 -8 20 -20 20 -28 0 -18 25 -42 44 -42 9 0 16 -4 16
-10 0 -5 9 -10 20 -10 11 0 20 -4 20 -10 0 -5 14 -10 30 -10 17 0 30 -4 30
-10 0 -7 207 -10 600 -10 393 0 600 3 600 10 0 6 14 10 30 10 17 0 30 5 30 10
0 6 7 10 15 10 20 0 105 85 105 105 0 8 5 15 10 15 6 0 10 18 10 39 0 22 6 42
13 45 10 5 10 7 0 12 -7 3 -13 23 -13 45 0 21 -4 39 -10 39 -5 0 -10 7 -10 15
0 20 -85 105 -105 105 -8 0 -15 5 -15 10 0 6 -13 10 -30 10 -16 0 -30 5 -30
10 0 7 -207 10 -600 10 -393 0 -600 -3 -600 -10z"/>
<path d="M6200 5950 c0 -5 -16 -10 -35 -10 -27 0 -44 -8 -70 -35 -19 -19 -35
-41 -35 -50 0 -8 -4 -15 -10 -15 -6 0 -10 -30 -10 -70 0 -40 4 -70 10 -70 6 0
10 -7 10 -15 0 -26 66 -85 95 -85 14 0 25 -4 25 -10 0 -7 243 -10 710 -10 467
0 710 3 710 10 0 6 14 10 30 10 17 0 30 5 30 10 0 6 7 10 15 10 20 0 65 45 65
65 0 8 5 15 10 15 6 0 10 30 10 70 0 40 -4 70 -10 70 -5 0 -10 7 -10 15 0 20
-45 65 -65 65 -8 0 -15 5 -15 10 0 6 -13 10 -30 10 -16 0 -30 5 -30 10 0 7
-240 10 -700 10 -460 0 -700 -3 -700 -10z"/>
<path d="M400 2490 c0 -5 5 -10 10 -10 6 0 10 -13 10 -30 0 -16 5 -30 10 -30
6 0 10 -18 10 -40 0 -22 5 -40 10 -40 6 0 10 -18 10 -40 0 -22 5 -40 10 -40 6
0 10 -13 10 -30 0 -16 5 -30 10 -30 6 0 10 -18 10 -40 0 -22 5 -40 10 -40 6 0
10 -18 10 -40 0 -22 5 -40 10 -40 6 0 10 -13 10 -30 0 -16 5 -30 10 -30 6 0
10 -18 10 -40 0 -22 5 -40 10 -40 6 0 10 -18 10 -40 0 -22 5 -40 10 -40 6 0
10 -13 10 -30 0 -16 5 -30 10 -30 6 0 10 -18 10 -40 0 -22 5 -40 10 -40 6 0
10 -18 10 -40 0 -22 5 -40 10 -40 6 0 10 -18 10 -40 0 -22 5 -40 10 -40 6 0
10 -13 10 -30 0 -16 5 -30 10 -30 6 0 10 -18 10 -40 0 -22 5 -40 10 -40 6 0
10 -18 10 -40 0 -22 5 -40 10 -40 6 0 10 -18 10 -40 0 -22 5 -40 10 -40 6 0
10 -13 10 -30 0 -16 5 -30 10 -30 6 0 10 -18 10 -40 0 -22 5 -40 10 -40 6 0
10 -18 10 -40 0 -22 5 -40 10 -40 6 0 10 -13 10 -30 0 -16 5 -30 10 -30 6 0
10 -18 10 -40 0 -22 5 -40 10 -40 6 0 10 -18 10 -40 0 -22 5 -40 10 -40 6 0
10 -13 10 -30 0 -16 5 -30 10 -30 6 0 10 -18 10 -40 0 -22 5 -40 10 -40 6 0
10 -18 10 -40 0 -22 5 -40 10 -40 6 0 10 -13 10 -30 0 -16 5 -30 10 -30 6 0
10 -13 10 -30 l0 -30 220 0 220 0 0 30 c0 17 5 30 10 30 6 0 10 14 10 30 0 17
5 30 10 30 6 0 10 18 10 40 0 22 5 40 10 40 6 0 10 14 10 30 0 17 5 30 10 30
6 0 10 18 10 40 0 22 5 40 10 40 6 0 10 18 10 40 0 22 5 40 10 40 6 0 10 14
10 30 0 17 5 30 10 30 6 0 10 18 10 40 0 22 5 40 10 40 6 0 10 14 10 30 0 17
5 30 10 30 6 0 10 18 10 40 0 22 5 40 10 40 6 0 10 14 10 30 0 17 5 30 10 30
6 0 10 18 10 40 0 22 5 40 10 40 6 0 10 14 10 30 0 17 5 30 10 30 6 0 10 18
10 40 0 22 5 40 10 40 6 0 10 14 10 30 0 17 5 30 10 30 6 0 10 18 10 40 0 22
5 40 10 40 6 0 10 14 10 30 0 17 5 30 10 30 6 0 10 18 10 40 0 22 5 40 10 40
6 0 10 14 10 30 0 17 5 30 10 30 6 0 10 18 10 40 0 33 3 40 20 40 17 0 20 -7
20 -50 0 -27 5 -50 10 -50 6 0 10 -13 10 -30 0 -16 5 -30 10 -30 6 0 10 -18
10 -40 0 -22 5 -40 10 -40 6 0 10 -18 10 -40 0 -22 5 -40 10 -40 6 0 10 -18
10 -40 0 -22 5 -40 10 -40 6 0 10 -13 10 -30 0 -16 5 -30 10 -30 6 0 10 -18
10 -40 0 -22 5 -40 10 -40 6 0 10 -18 10 -40 0 -22 5 -40 10 -40 6 0 10 -13
10 -30 0 -16 5 -30 10 -30 6 0 10 -18 10 -40 0 -22 5 -40 10 -40 6 0 10 -18
10 -40 0 -22 5 -40 10 -40 6 0 10 -13 10 -30 0 -16 5 -30 10 -30 6 0 10 -18
10 -40 0 -22 5 -40 10 -40 6 0 10 -18 10 -40 0 -22 5 -40 10 -40 6 0 10 -13
10 -30 0 -16 5 -30 10 -30 6 0 10 -18 10 -40 0 -22 5 -40 10 -40 6 0 10 -18
10 -40 0 -22 5 -40 10 -40 6 0 10 -13 10 -30 0 -16 5 -30 10 -30 6 0 10 -13
10 -30 l0 -30 210 0 210 0 0 30 c0 17 5 30 10 30 6 0 10 14 10 30 0 17 5 30
10 30 6 0 10 18 10 40 0 22 5 40 10 40 6 0 10 18 10 40 0 22 5 40 10 40 6 0
10 14 10 30 0 17 5 30 10 30 6 0 10 18 10 40 0 22 5 40 10 40 6 0 10 14 10 30
0 17 5 30 10 30 6 0 10 18 10 40 0 22 5 40 10 40 6 0 10 18 10 40 0 22 5 40
10 40 6 0 10 14 10 30 0 17 5 30 10 30 6 0 10 18 10 40 0 22 5 40 10 40 6 0
10 14 10 30 0 17 5 30 10 30 6 0 10 18 10 40 0 22 5 40 10 40 6 0 10 14 10 30
0 17 5 30 10 30 6 0 10 18 10 40 0 22 5 40 10 40 6 0 10 18 10 40 0 22 5 40
10 40 6 0 10 14 10 30 0 17 5 30 10 30 6 0 10 18 10 40 0 22 5 40 10 40 6 0
10 18 10 40 0 22 5 40 10 40 6 0 10 14 10 30 0 17 5 30 10 30 6 0 10 18 10 40
0 22 5 40 10 40 6 0 10 18 10 40 0 22 5 40 10 40 6 0 10 14 10 30 0 17 5 30
10 30 6 0 10 18 10 40 0 22 5 40 10 40 6 0 10 14 10 30 0 17 5 30 10 30 6 0
10 18 10 40 0 22 5 40 10 40 6 0 10 18 10 40 0 22 5 40 10 40 6 0 10 14 10 30
0 17 5 30 10 30 6 0 10 14 10 30 l0 30 -216 0 c-240 0 -244 -1 -244 -64 0 -20
-4 -36 -10 -36 -5 0 -10 -22 -10 -50 0 -27 -4 -50 -10 -50 -5 0 -10 -18 -10
-40 0 -22 -4 -40 -10 -40 -5 0 -10 -18 -10 -40 0 -22 -4 -40 -10 -40 -5 0 -10
-22 -10 -50 0 -27 -4 -50 -10 -50 -5 0 -10 -18 -10 -40 0 -22 -4 -40 -10 -40
-5 0 -10 -18 -10 -40 0 -22 -4 -40 -10 -40 -5 0 -10 -22 -10 -50 0 -27 -4 -50
-10 -50 -5 0 -10 -18 -10 -40 0 -22 -4 -40 -10 -40 -5 0 -10 -18 -10 -40 0
-22 -4 -40 -10 -40 -5 0 -10 -22 -10 -50 0 -27 -4 -50 -10 -50 -5 0 -10 -18
-10 -40 0 -22 -4 -40 -10 -40 -5 0 -10 -18 -10 -40 0 -22 -4 -40 -10 -40 -5 0
-10 -22 -10 -50 0 -27 -4 -50 -10 -50 -5 0 -10 -18 -10 -40 0 -22 -4 -40 -10
-40 -5 0 -10 -18 -10 -40 0 -22 -4 -40 -10 -40 -5 0 -10 -13 -10 -30 0 -16 -4
-30 -10 -30 -5 0 -10 18 -10 40 0 22 -4 40 -10 40 -5 0 -10 14 -10 30 0 17 -4
30 -10 30 -5 0 -10 18 -10 40 0 22 -4 40 -10 40 -5 0 -10 18 -10 40 0 22 -4
40 -10 40 -5 0 -10 18 -10 40 0 22 -4 40 -10 40 -5 0 -10 18 -10 40 0 22 -4
40 -10 40 -5 0 -10 14 -10 30 0 17 -4 30 -10 30 -5 0 -10 18 -10 40 0 22 -4
40 -10 40 -5 0 -10 18 -10 40 0 22 -4 40 -10 40 -5 0 -10 18 -10 40 0 22 -4
40 -10 40 -5 0 -10 18 -10 40 0 22 -4 40 -10 40 -5 0 -10 18 -10 40 0 22 -4
40 -10 40 -5 0 -10 18 -10 40 0 22 -4 40 -10 40 -5 0 -10 18 -10 40 0 22 -4
40 -10 40 -5 0 -10 14 -10 30 0 17 -4 30 -10 30 -5 0 -10 18 -10 40 0 22 -4
40 -10 40 -5 0 -10 18 -10 40 0 22 -4 40 -10 40 -5 0 -10 18 -10 40 0 22 -4
40 -10 40 -5 0 -10 18 -10 40 l0 40 -200 0 c-193 0 -200 -1 -200 -20 0 -11 -4
-20 -10 -20 -5 0 -10 -18 -10 -40 0 -22 -4 -40 -10 -40 -5 0 -10 -13 -10 -30
0 -16 -4 -30 -10 -30 -5 0 -10 -18 -10 -40 0 -22 -4 -40 -10 -40 -5 0 -10 -18
-10 -40 0 -22 -4 -40 -10 -40 -5 0 -10 -18 -10 -40 0 -22 -4 -40 -10 -40 -5 0
-10 -18 -10 -40 0 -22 -4 -40 -10 -40 -5 0 -10 -18 -10 -40 0 -22 -4 -40 -10
-40 -5 0 -10 -18 -10 -40 0 -22 -4 -40 -10 -40 -5 0 -10 -13 -10 -30 0 -16 -4
-30 -10 -30 -5 0 -10 -18 -10 -40 0 -22 -4 -40 -10 -40 -5 0 -10 -18 -10 -40
0 -22 -4 -40 -10 -40 -5 0 -10 -18 -10 -40 0 -22 -4 -40 -10 -40 -5 0 -10 -18
-10 -40 0 -22 -4 -40 -10 -40 -5 0 -10 -18 -10 -40 0 -22 -4 -40 -10 -40 -5 0
-10 -13 -10 -30 0 -16 -4 -30 -10 -30 -5 0 -10 -18 -10 -40 0 -22 -4 -40 -10
-40 -5 0 -10 -18 -10 -40 0 -22 -4 -40 -10 -40 -5 0 -10 -18 -10 -40 0 -22 -4
-40 -10 -40 -5 0 -10 -13 -10 -30 0 -16 -4 -30 -10 -30 -5 0 -10 14 -10 30 0
17 -4 30 -10 30 -5 0 -10 18 -10 40 0 22 -4 40 -10 40 -5 0 -10 18 -10 40 0
22 -4 40 -10 40 -5 0 -10 18 -10 40 0 22 -4 40 -10 40 -5 0 -10 18 -10 40 0
22 -4 40 -10 40 -5 0 -10 18 -10 40 0 22 -4 40 -10 40 -5 0 -10 18 -10 40 0
22 -4 40 -10 40 -5 0 -10 23 -10 50 0 28 -4 50 -10 50 -5 0 -10 18 -10 40 0
22 -4 40 -10 40 -5 0 -10 18 -10 40 0 22 -4 40 -10 40 -5 0 -10 18 -10 40 0
22 -4 40 -10 40 -5 0 -10 18 -10 40 0 22 -4 40 -10 40 -5 0 -10 18 -10 40 0
22 -4 40 -10 40 -5 0 -10 23 -10 50 0 28 -4 50 -10 50 -5 0 -10 18 -10 40 0
22 -4 40 -10 40 -5 0 -10 23 -10 50 0 28 -4 50 -10 50 -5 0 -10 18 -10 40 0
22 -4 40 -10 40 -5 0 -10 18 -10 40 l0 40 -230 0 c-147 0 -230 -4 -230 -10z"/>
<path d="M5880 1470 l0 -1030 190 0 190 0 0 215 0 215 85 85 85 86 25 -25 c14
-14 25 -31 25 -38 0 -8 9 -20 20 -28 11 -8 20 -21 20 -30 0 -9 9 -22 20 -30
11 -8 20 -21 20 -30 0 -9 9 -22 20 -30 11 -8 20 -22 20 -32 0 -10 5 -18 10
-18 6 0 10 -8 10 -18 0 -10 9 -24 20 -32 11 -8 20 -21 20 -30 0 -9 9 -22 20
-30 11 -8 20 -21 20 -30 0 -9 9 -22 20 -30 11 -8 20 -21 20 -30 0 -9 9 -22 20
-30 11 -8 20 -21 20 -30 0 -9 9 -22 20 -30 11 -8 20 -22 20 -32 0 -17 16 -18
220 -18 213 0 220 1 220 20 0 11 -4 20 -10 20 -5 0 -10 8 -10 18 0 10 -9 24
-20 32 -11 8 -20 21 -20 30 0 9 -9 22 -20 30 -11 8 -20 22 -20 32 0 10 -4 18
-10 18 -5 0 -10 8 -10 18 0 10 -9 24 -20 32 -11 8 -20 21 -20 30 0 9 -9 22
-20 30 -11 8 -20 21 -20 30 0 9 -9 22 -20 30 -11 8 -20 22 -20 32 0 10 -4 18
-10 18 -5 0 -10 8 -10 18 0 10 -9 24 -20 32 -11 8 -20 21 -20 30 0 9 -9 22
-20 30 -11 8 -20 22 -20 32 0 10 -4 18 -10 18 -5 0 -10 8 -10 18 0 10 -9 24
-20 32 -11 8 -20 21 -20 30 0 9 -9 22 -20 30 -11 8 -20 21 -20 30 0 9 -9 22
-20 30 -11 8 -20 22 -20 32 0 10 -4 18 -10 18 -5 0 -10 8 -10 18 0 10 -9 24
-20 32 -11 8 -20 20 -20 28 0 7 32 44 70 82 39 38 70 74 70 80 0 6 32 42 70
80 39 38 70 74 70 80 0 6 32 42 70 80 39 38 70 74 70 80 0 6 23 33 50 60 82
80 83 80 -165 80 -216 0 -216 0 -240 -25 -14 -13 -25 -29 -25 -35 0 -6 -27
-38 -60 -70 -33 -32 -60 -64 -60 -70 0 -6 -27 -38 -60 -70 -33 -32 -60 -64
-60 -70 0 -6 -27 -38 -60 -70 -33 -32 -60 -64 -60 -70 0 -10 -125 -140 -135
-140 -3 0 -5 266 -5 590 l0 590 -190 0 -190 0 0 -1030z"/>
<path d="M11640 1470 l0 -1030 210 0 210 0 0 360 c0 233 4 360 10 360 6 0 10
-4 10 -10 0 -15 197 -13 204 3 5 9 7 9 12 0 7 -15 104 -18 104 -3 0 6 43 10
110 10 67 0 110 4 110 10 0 6 18 10 40 10 22 0 40 5 40 10 0 6 14 10 30 10 17
0 30 5 30 10 0 6 9 10 20 10 11 0 20 5 20 10 0 6 8 10 18 10 10 0 24 9 32 20
8 11 20 20 27 20 17 0 143 126 143 143 0 7 9 19 20 27 11 8 20 22 20 32 0 10
5 18 10 18 6 0 10 14 10 30 0 17 5 30 10 30 6 0 10 14 10 30 0 17 5 30 10 30
6 0 10 23 10 50 0 28 5 50 10 50 6 0 10 37 10 90 0 53 -4 90 -10 90 -5 0 -10
23 -10 50 0 28 -4 50 -10 50 -5 0 -10 18 -10 40 0 22 -4 40 -10 40 -5 0 -10 9
-10 20 0 11 -4 20 -10 20 -5 0 -10 9 -10 20 0 11 -4 20 -10 20 -5 0 -10 9 -10
20 0 11 -4 20 -10 20 -5 0 -10 7 -10 15 0 20 -145 165 -165 165 -8 0 -15 5
-15 10 0 6 -9 10 -20 10 -11 0 -20 5 -20 10 0 6 -9 10 -20 10 -11 0 -20 5 -20
10 0 6 -9 10 -20 10 -11 0 -20 5 -20 10 0 6 -13 10 -30 10 -16 0 -30 5 -30 10
0 6 -27 10 -60 10 -33 0 -60 4 -60 10 0 7 -157 10 -450 10 l-450 0 0 -1030z
m440 680 c0 -6 77 -10 210 -10 133 0 210 -4 210 -10 0 -5 14 -10 30 -10 17 0
30 -4 30 -10 0 -5 7 -10 15 -10 20 0 85 -65 85 -85 0 -8 5 -15 10 -15 6 0 10
-9 10 -20 0 -11 5 -20 10 -20 6 0 10 -13 10 -30 0 -16 5 -30 10 -30 6 0 10
-33 10 -80 0 -47 -4 -80 -10 -80 -5 0 -10 -13 -10 -30 0 -16 -4 -30 -10 -30
-5 0 -10 -7 -10 -15 0 -20 -105 -125 -125 -125 -8 0 -15 -4 -15 -10 0 -5 -13
-10 -30 -10 -16 0 -30 -4 -30 -10 0 -6 -77 -10 -210 -10 l-210 0 0 330 c0 213
4 330 10 330 6 0 10 -4 10 -10z"/>
<path d="M13360 1470 l0 -1030 190 0 190 0 0 1030 0 1030 -190 0 -190 0 0
-1030z"/>
<path d="M10653 2305 c-18 -20 -18 -342 -1 -347 9 -3 7 -10 -6 -24 -14 -13
-21 -15 -24 -6 -6 20 -169 16 -190 -5 -12 -12 -13 -18 -4 -21 9 -3 12 -37 12
-122 0 -85 -3 -119 -12 -122 -9 -3 -8 -9 4 -21 19 -20 64 -23 71 -4 4 9 8 8
16 -3 10 -13 12 -13 21 0 9 13 11 13 20 0 9 -13 11 -13 20 0 9 13 11 13 20 0
9 -13 11 -13 19 -1 8 12 12 11 28 -4 13 -13 14 -20 5 -23 -16 -5 -18 -702 -2
-702 6 0 10 -33 10 -80 0 -47 4 -80 10 -80 6 0 10 -13 10 -30 0 -16 5 -30 10
-30 6 0 10 -13 10 -28 0 -16 8 -34 20 -42 11 -8 20 -20 20 -28 0 -18 66 -82
85 -82 8 0 15 -4 15 -10 0 -5 9 -10 20 -10 11 0 20 -4 20 -10 0 -5 18 -10 40
-10 22 0 40 -4 40 -10 0 -6 67 -10 180 -10 113 0 180 4 180 10 0 6 14 10 30
10 l30 0 0 160 0 160 -30 0 c-16 0 -30 -4 -30 -10 0 -6 -37 -10 -90 -10 -53 0
-90 4 -90 10 0 6 -7 10 -16 10 -20 0 -44 24 -44 44 0 9 -4 16 -10 16 -5 0 -10
9 -10 20 0 11 -4 20 -10 20 -6 0 -10 133 -10 380 l0 380 39 0 c22 0 42 -5 44
-12 4 -10 8 -9 17 2 9 11 13 12 17 3 6 -15 83 -18 83 -3 0 15 97 13 102 -2 3
-9 9 -8 21 4 23 23 25 271 3 294 -11 11 -47 14 -160 14 -91 0 -146 -4 -146
-10 0 -5 -4 -10 -10 -10 -6 0 -10 73 -10 200 l0 200 -187 0 c-150 -1 -191 -4
-200 -15z"/>
<path d="M3680 1950 c0 -5 -18 -10 -40 -10 -22 0 -40 -4 -40 -10 0 -5 -13 -10
-30 -10 -16 0 -30 -4 -30 -10 0 -5 -9 -10 -20 -10 -11 0 -20 -4 -20 -10 0 -5
-9 -10 -20 -10 -11 0 -20 -4 -20 -10 0 -5 -7 -10 -16 -10 -9 0 -29 -13 -44
-30 -15 -16 -33 -30 -39 -30 -16 0 -101 -87 -101 -103 0 -7 -9 -19 -20 -27
-11 -8 -20 -22 -20 -32 0 -10 -4 -18 -10 -18 -5 0 -10 -9 -10 -20 0 -11 -4
-20 -10 -20 -5 0 -10 -9 -10 -20 0 -11 -4 -20 -10 -20 -5 0 -10 -9 -10 -20 0
-11 -4 -20 -10 -20 -5 0 -10 -18 -10 -40 0 -22 -4 -40 -10 -40 -5 0 -10 -22
-10 -50 0 -27 -4 -50 -10 -50 -6 0 -10 -53 -10 -140 0 -87 4 -140 10 -140 6 0
10 -22 10 -50 0 -27 5 -50 10 -50 6 0 10 -13 10 -30 0 -16 5 -30 10 -30 6 0
10 -9 10 -20 0 -11 5 -20 10 -20 6 0 10 -9 10 -20 0 -11 5 -20 10 -20 6 0 10
-9 10 -20 0 -11 5 -20 10 -20 6 0 10 -7 10 -16 0 -9 14 -29 30 -44 17 -15 30
-33 30 -39 0 -15 66 -81 81 -81 6 0 24 -13 39 -30 15 -16 35 -30 44 -30 9 0
16 -4 16 -10 0 -5 9 -10 20 -10 11 0 20 -4 20 -10 0 -5 14 -10 30 -10 17 0 30
-4 30 -10 0 -5 9 -10 20 -10 11 0 20 -4 20 -10 0 -5 18 -10 40 -10 22 0 40 -4
40 -10 0 -6 60 -10 160 -10 100 0 160 4 160 10 0 6 18 10 40 10 22 0 40 5 40
10 0 6 14 10 30 10 17 0 30 5 30 10 0 6 9 10 20 10 11 0 20 5 20 10 0 6 9 10
20 10 11 0 20 5 20 10 0 6 9 10 20 10 11 0 20 5 20 10 0 6 7 10 15 10 19 0
185 164 185 183 0 7 9 19 20 27 11 8 20 22 20 32 0 10 5 18 10 18 6 0 10 9 10
20 0 11 5 20 10 20 6 0 10 14 10 30 0 17 5 30 10 30 6 0 10 14 10 30 0 17 5
30 10 30 6 0 10 23 10 50 0 28 5 50 10 50 6 0 10 50 10 130 0 80 -4 130 -10
130 -5 0 -10 23 -10 50 0 28 -4 50 -10 50 -5 0 -10 14 -10 30 0 17 -4 30 -10
30 -5 0 -10 14 -10 30 0 17 -4 30 -10 30 -5 0 -10 9 -10 20 0 11 -4 20 -10 20
-5 0 -10 8 -10 18 0 10 -9 24 -20 32 -11 8 -20 20 -20 27 0 17 -166 183 -183
183 -7 0 -19 9 -27 20 -8 11 -22 20 -32 20 -10 0 -18 5 -18 10 0 6 -13 10 -30
10 -16 0 -30 5 -30 10 0 6 -9 10 -20 10 -11 0 -20 5 -20 10 0 6 -22 10 -50 10
-27 0 -50 5 -50 10 0 6 -60 10 -160 10 -100 0 -160 -4 -160 -10z m240 -320 c0
-5 14 -10 30 -10 17 0 30 -4 30 -10 0 -5 9 -10 20 -10 11 0 20 -4 20 -10 0 -5
7 -10 15 -10 19 0 85 -64 85 -82 0 -8 9 -20 20 -28 12 -8 20 -26 20 -42 0 -15
5 -28 10 -28 6 0 10 -13 10 -30 0 -16 5 -30 10 -30 6 0 10 -60 10 -160 0 -100
-4 -160 -10 -160 -5 0 -10 -13 -10 -30 0 -16 -4 -30 -10 -30 -5 0 -10 -8 -10
-18 0 -10 -9 -24 -20 -32 -11 -8 -20 -20 -20 -28 0 -18 -66 -82 -85 -82 -8 0
-15 -4 -15 -10 0 -5 -9 -10 -20 -10 -11 0 -20 -4 -20 -10 0 -5 -9 -10 -20 -10
-11 0 -20 -4 -20 -10 0 -6 -37 -10 -90 -10 -53 0 -90 4 -90 10 0 6 -13 10 -28
10 -16 0 -34 8 -42 20 -8 11 -20 20 -27 20 -19 0 -103 86 -103 105 0 8 -4 15
-10 15 -5 0 -10 9 -10 20 0 11 -4 20 -10 20 -5 0 -10 14 -10 30 0 17 -4 30
-10 30 -6 0 -10 33 -10 79 0 54 -4 81 -12 85 -10 5 -10 7 0 12 8 4 12 29 12
75 0 39 4 69 10 69 6 0 10 14 10 30 0 17 5 30 10 30 6 0 10 13 10 28 0 16 8
34 20 42 11 8 20 20 20 28 0 7 16 28 35 47 19 19 40 35 47 35 8 0 20 9 28 20
8 12 26 20 42 20 15 0 28 5 28 10 0 6 33 10 80 10 47 0 80 -4 80 -10z"/>
<path d="M5480 1950 c0 -5 -18 -10 -40 -10 -22 0 -40 -4 -40 -10 0 -5 -9 -10
-20 -10 -11 0 -20 -4 -20 -10 0 -5 -7 -10 -15 -10 -17 0 -145 -124 -145 -141
0 -11 -24 -39 -34 -39 -3 0 -6 50 -6 110 0 102 -1 110 -19 110 -11 0 -22 -6
-24 -12 -4 -10 -8 -9 -17 2 -9 11 -13 12 -17 3 -6 -15 -63 -18 -63 -3 0 14
-37 12 -44 -2 -5 -10 -7 -10 -12 0 -8 18 -131 16 -150 -2 -21 -22 -21 -1450 0
-1472 21 -21 351 -21 372 0 12 12 14 87 14 460 0 291 3 446 10 446 6 0 10 14
10 30 0 17 5 30 10 30 6 0 10 7 10 15 0 20 85 105 105 105 8 0 15 5 15 10 0 6
9 10 20 10 11 0 20 5 20 10 0 6 53 10 140 10 l140 0 0 190 0 190 -100 0 c-60
0 -100 -4 -100 -10z"/>
<path d="M7840 1950 c0 -5 -22 -10 -50 -10 -27 0 -50 -4 -50 -10 0 -5 -9 -10
-20 -10 -11 0 -20 -4 -20 -10 0 -5 -9 -10 -20 -10 -11 0 -20 -4 -20 -10 0 -5
-9 -10 -20 -10 -11 0 -20 -4 -20 -10 0 -5 -8 -10 -18 -10 -10 0 -24 -9 -32
-20 -8 -11 -20 -20 -27 -20 -17 0 -143 -126 -143 -143 0 -7 -9 -19 -20 -27
-11 -8 -20 -22 -20 -32 0 -10 -4 -18 -10 -18 -5 0 -10 -9 -10 -20 0 -11 -4
-20 -10 -20 -5 0 -10 -9 -10 -20 0 -11 -4 -20 -10 -20 -5 0 -10 -13 -10 -30 0
-16 -4 -30 -10 -30 -5 0 -10 -18 -10 -40 0 -22 -4 -40 -10 -40 -6 0 -10 -70
-10 -190 0 -120 4 -190 10 -190 6 0 10 -18 10 -40 0 -22 5 -40 10 -40 6 0 10
-13 10 -30 0 -16 5 -30 10 -30 6 0 10 -9 10 -20 0 -11 5 -20 10 -20 6 0 10 -9
10 -20 0 -11 5 -20 10 -20 6 0 10 -8 10 -18 0 -10 9 -24 20 -32 11 -8 20 -20
20 -27 0 -19 146 -163 165 -163 8 0 15 -4 15 -10 0 -5 9 -10 20 -10 11 0 20
-4 20 -10 0 -5 9 -10 20 -10 11 0 20 -4 20 -10 0 -5 9 -10 20 -10 11 0 20 -4
20 -10 0 -5 14 -10 30 -10 17 0 30 -4 30 -10 0 -5 18 -10 40 -10 22 0 40 -4
40 -10 0 -6 60 -10 160 -10 100 0 160 4 160 10 0 6 18 10 40 10 22 0 40 5 40
10 0 6 14 10 30 10 17 0 30 5 30 10 0 6 9 10 20 10 11 0 20 5 20 10 0 6 9 10
20 10 11 0 20 5 20 10 0 6 8 10 18 10 10 0 24 9 32 20 8 11 20 20 27 20 17 0
143 126 143 143 0 7 9 19 20 27 11 8 20 22 20 32 0 10 5 18 10 18 6 0 10 9 10
20 0 11 5 20 10 20 6 0 10 9 10 20 0 11 5 20 10 20 6 0 10 14 10 30 0 17 5 30
10 30 6 0 10 18 10 40 0 22 5 40 10 40 6 0 10 70 10 190 0 120 -4 190 -10 190
-5 0 -10 18 -10 40 0 22 -4 40 -10 40 -5 0 -10 14 -10 30 0 17 -4 30 -10 30
-5 0 -10 9 -10 20 0 11 -4 20 -10 20 -5 0 -10 9 -10 20 0 11 -4 20 -10 20 -5
0 -10 8 -10 18 0 10 -9 24 -20 32 -11 8 -20 20 -20 27 0 17 -126 143 -143 143
-7 0 -19 9 -27 20 -8 11 -21 20 -30 20 -9 0 -22 9 -30 20 -8 12 -26 20 -42 20
-15 0 -28 5 -28 10 0 6 -13 10 -30 10 -16 0 -30 5 -30 10 0 6 -13 10 -30 10
-16 0 -30 5 -30 10 0 6 -63 10 -170 10 -107 0 -170 -4 -170 -10z m260 -320 c0
-5 9 -10 20 -10 11 0 20 -4 20 -10 0 -5 9 -10 20 -10 11 0 20 -4 20 -10 0 -5
7 -10 15 -10 19 0 65 -44 65 -62 0 -8 9 -20 20 -28 11 -8 20 -22 20 -32 0 -10
5 -18 10 -18 6 0 10 -9 10 -20 0 -11 5 -20 10 -20 6 0 10 -18 10 -40 0 -22 5
-40 10 -40 6 0 10 -50 10 -130 0 -80 -4 -130 -10 -130 -5 0 -10 -18 -10 -40 0
-22 -4 -40 -10 -40 -5 0 -10 -9 -10 -20 0 -11 -4 -20 -10 -20 -5 0 -10 -7 -10
-15 0 -20 -125 -145 -145 -145 -8 0 -15 -4 -15 -10 0 -5 -13 -10 -30 -10 -16
0 -30 -4 -30 -10 0 -6 -33 -10 -80 -10 -47 0 -80 4 -80 10 0 6 -13 10 -30 10
-16 0 -30 5 -30 10 0 6 -7 10 -15 10 -20 0 -145 125 -145 145 0 8 -4 15 -10
15 -5 0 -10 14 -10 30 0 17 -4 30 -10 30 -5 0 -10 14 -10 30 0 17 -4 30 -10
30 -6 0 -10 50 -10 130 0 80 4 130 10 130 6 0 10 14 10 30 0 17 5 30 10 30 6
0 10 14 10 30 0 17 5 30 10 30 6 0 10 7 10 15 0 20 125 145 145 145 8 0 15 5
15 10 0 6 14 10 30 10 17 0 30 5 30 10 0 6 37 10 90 10 53 0 90 -4 90 -10z"/>
<path d="M14520 1950 c0 -5 -18 -10 -40 -10 -22 0 -40 -4 -40 -10 0 -5 -13
-10 -30 -10 -16 0 -30 -4 -30 -10 0 -5 -9 -10 -20 -10 -11 0 -20 -4 -20 -10 0
-5 -9 -10 -20 -10 -11 0 -20 -4 -20 -10 0 -5 -7 -10 -15 -10 -19 0 -165 -144
-165 -163 0 -7 -9 -19 -20 -27 -12 -8 -20 -26 -20 -42 0 -15 -4 -28 -10 -28
-5 0 -10 -18 -10 -39 0 -22 -5 -41 -12 -43 -9 -3 -8 -10 5 -23 16 -15 20 -16
29 -4 7 11 11 11 15 2 6 -15 83 -18 83 -3 0 15 177 13 182 -2 3 -7 41 24 86
70 59 60 88 82 107 82 14 0 25 5 25 10 0 6 47 10 120 10 73 0 120 -4 120 -10
0 -5 9 -10 20 -10 11 0 20 -4 20 -10 0 -5 7 -10 15 -10 20 0 65 -45 65 -65 0
-8 5 -15 10 -15 6 0 10 -25 10 -56 0 -62 -14 -84 -54 -84 -14 0 -26 -4 -26
-10 0 -6 -27 -10 -60 -10 -33 0 -60 -4 -60 -10 0 -6 -27 -10 -60 -10 -33 0
-60 -4 -60 -10 0 -6 -27 -10 -60 -10 -33 0 -60 -4 -60 -10 0 -5 -22 -10 -50
-10 -27 0 -50 -4 -50 -10 0 -5 -13 -10 -30 -10 -16 0 -30 -4 -30 -10 0 -5 -13
-10 -30 -10 -16 0 -30 -4 -30 -10 0 -5 -13 -10 -28 -10 -16 0 -34 -8 -42 -20
-8 -11 -20 -20 -27 -20 -19 0 -143 -126 -143 -145 0 -8 -4 -15 -10 -15 -5 0
-10 -9 -10 -20 0 -11 -4 -20 -10 -20 -5 0 -10 -13 -10 -30 0 -16 -4 -30 -10
-30 -6 0 -10 -37 -10 -90 0 -53 4 -90 10 -90 6 0 10 -18 10 -40 0 -22 5 -40
10 -40 6 0 10 -8 10 -18 0 -10 9 -24 20 -32 11 -8 20 -20 20 -27 0 -19 86
-103 105 -103 8 0 15 -4 15 -10 0 -5 9 -10 20 -10 11 0 20 -4 20 -10 0 -5 9
-10 20 -10 11 0 20 -4 20 -10 0 -5 14 -10 30 -10 17 0 30 -4 30 -10 0 -5 18
-10 40 -10 22 0 40 -4 40 -10 0 -6 47 -10 120 -10 73 0 120 4 120 10 0 6 18
10 40 10 22 0 40 5 40 10 0 6 9 10 20 10 11 0 20 5 20 10 0 6 9 10 20 10 11 0
20 5 20 10 0 6 7 10 16 10 8 0 42 27 74 60 32 33 61 60 64 60 4 0 6 -13 6 -30
0 -16 5 -30 10 -30 6 0 10 -27 10 -60 l0 -60 176 0 c151 0 178 2 192 17 12 12
13 18 4 21 -9 3 -12 116 -12 513 0 333 -3 509 -10 509 -5 0 -10 18 -10 40 0
22 -4 40 -10 40 -5 0 -10 14 -10 30 0 17 -4 30 -10 30 -5 0 -10 9 -10 20 0 11
-4 20 -10 20 -5 0 -10 9 -10 20 0 11 -4 20 -10 20 -5 0 -10 7 -10 15 0 20
-105 125 -125 125 -8 0 -15 5 -15 10 0 6 -9 10 -20 10 -11 0 -20 5 -20 10 0 6
-9 10 -20 10 -11 0 -20 5 -20 10 0 6 -13 10 -30 10 -16 0 -30 5 -30 10 0 6
-22 10 -50 10 -27 0 -50 5 -50 10 0 6 -67 10 -180 10 -113 0 -180 -4 -180 -10z
m460 -890 c0 -33 -4 -60 -10 -60 -5 0 -10 -22 -10 -50 0 -27 -4 -50 -10 -50
-5 0 -10 -7 -10 -15 0 -20 -105 -125 -125 -125 -8 0 -15 -4 -15 -10 0 -5 -13
-10 -30 -10 -16 0 -30 -4 -30 -10 0 -6 -43 -10 -110 -10 -67 0 -110 4 -110 10
0 6 -7 10 -15 10 -20 0 -85 65 -85 85 0 8 -4 15 -10 15 -5 0 -10 23 -10 50 0
28 5 50 10 50 6 0 10 9 10 20 0 11 5 20 10 20 6 0 10 9 10 20 0 13 7 20 20 20
11 0 20 5 20 10 0 6 9 10 20 10 11 0 20 5 20 10 0 6 9 10 20 10 11 0 20 5 20
10 0 6 27 10 60 10 33 0 60 4 60 10 0 6 27 10 60 10 33 0 60 4 60 10 0 6 37
10 90 10 l90 0 0 -60z"/>
<path d="M16320 1950 c0 -5 -18 -10 -40 -10 -22 0 -40 -4 -40 -10 0 -5 -9 -10
-20 -10 -11 0 -20 -4 -20 -10 0 -5 -7 -10 -16 -10 -9 0 -29 -13 -44 -30 -15
-16 -33 -30 -40 -30 -15 0 -40 -25 -40 -40 0 -11 -64 -80 -75 -80 -3 0 -5 50
-5 110 0 102 -1 110 -19 110 -11 0 -22 -6 -25 -12 -5 -10 -7 -10 -12 0 -7 14
-84 17 -84 2 0 -15 -77 -12 -84 3 -5 10 -7 10 -12 0 -7 -15 -64 -18 -64 -3 0
6 -9 10 -20 10 -20 0 -20 -7 -20 -750 l0 -750 190 0 190 0 0 490 c0 320 3 490
10 490 6 0 10 13 10 28 0 16 8 34 20 42 11 8 20 20 20 28 0 17 45 62 62 62 8
0 20 9 28 20 8 12 26 20 42 20 15 0 28 5 28 10 0 6 33 10 80 10 47 0 80 -4 80
-10 0 -5 13 -10 28 -10 16 0 34 -8 42 -20 8 -11 22 -20 32 -20 11 0 18 -7 18
-18 0 -10 9 -24 20 -32 11 -8 20 -22 20 -32 0 -10 5 -18 10 -18 6 0 10 -13 10
-30 0 -16 5 -30 10 -30 7 0 10 -170 10 -490 l0 -490 190 0 190 0 0 550 c0 360
-3 550 -10 550 -5 0 -10 18 -10 40 0 22 -4 40 -10 40 -5 0 -10 13 -10 28 0 16
-8 34 -20 42 -11 8 -20 21 -20 30 0 9 -9 22 -20 30 -11 8 -20 20 -20 28 0 17
-65 82 -82 82 -8 0 -20 9 -28 20 -8 11 -22 20 -32 20 -10 0 -18 5 -18 10 0 6
-9 10 -20 10 -11 0 -20 5 -20 10 0 6 -18 10 -40 10 -22 0 -40 5 -40 10 0 6
-50 10 -130 10 -80 0 -130 -4 -130 -10z"/>
<path d="M17920 1950 c0 -5 -13 -10 -30 -10 -16 0 -30 -4 -30 -10 0 -5 -9 -10
-20 -10 -11 0 -20 -4 -20 -10 0 -5 -7 -10 -15 -10 -20 0 -165 -145 -165 -165
0 -8 -9 -15 -20 -15 -19 0 -20 7 -20 110 0 67 -4 110 -10 110 -5 0 -10 -4 -10
-10 0 -5 -22 -10 -50 -10 -27 0 -50 5 -50 10 0 6 -9 10 -20 10 -11 0 -20 -4
-20 -10 0 -15 -97 -13 -103 3 -4 9 -8 8 -17 -3 -9 -11 -13 -12 -17 -2 -2 6
-13 12 -24 12 -19 0 -19 -18 -19 -750 l0 -750 190 0 190 0 0 490 c0 320 3 490
10 490 6 0 10 9 10 20 0 11 5 20 10 20 6 0 10 9 10 20 0 11 5 20 10 20 6 0 10
7 10 15 0 19 44 65 62 65 8 0 20 9 28 20 8 12 26 20 42 20 15 0 28 5 28 10 0
6 33 10 80 10 47 0 80 -4 80 -10 0 -5 11 -10 25 -10 28 0 135 -99 135 -125 0
-8 5 -15 10 -15 6 0 10 -13 10 -30 0 -16 5 -30 10 -30 7 0 10 -170 10 -490 l0
-490 190 0 190 0 0 550 c0 360 -3 550 -10 550 -5 0 -10 18 -10 40 0 22 -4 40
-10 40 -5 0 -10 9 -10 20 0 11 -4 20 -10 20 -5 0 -10 9 -10 20 0 11 -4 20 -10
20 -5 0 -10 8 -10 18 0 10 -9 24 -20 32 -11 8 -20 20 -20 28 0 16 -45 62 -61
62 -6 0 -24 14 -39 30 -15 17 -35 30 -44 30 -9 0 -16 5 -16 10 0 6 -13 10 -30
10 -16 0 -30 5 -30 10 0 6 -13 10 -30 10 -16 0 -30 5 -30 10 0 6 -53 10 -140
10 -87 0 -140 -4 -140 -10z"/>
<path d="M19360 1950 c0 -5 -18 -10 -40 -10 -22 0 -40 -4 -40 -10 0 -5 -9 -10
-20 -10 -11 0 -20 -4 -20 -10 0 -5 -13 -10 -28 -10 -16 0 -34 -8 -42 -20 -8
-11 -22 -20 -32 -20 -10 0 -18 -4 -18 -10 0 -5 -7 -10 -15 -10 -20 0 -185
-165 -185 -185 0 -8 -4 -15 -10 -15 -5 0 -10 -8 -10 -18 0 -10 -9 -24 -20 -32
-12 -8 -20 -26 -20 -42 0 -15 -4 -28 -10 -28 -5 0 -10 -9 -10 -20 0 -11 -4
-20 -10 -20 -5 0 -10 -18 -10 -40 0 -22 -4 -40 -10 -40 -6 0 -10 -73 -10 -200
0 -127 4 -200 10 -200 6 0 10 -18 10 -40 0 -22 5 -40 10 -40 6 0 10 -13 10
-30 0 -16 5 -30 10 -30 6 0 10 -9 10 -20 0 -11 5 -20 10 -20 6 0 10 -9 10 -20
0 -11 5 -20 10 -20 6 0 10 -8 10 -18 0 -10 9 -24 20 -32 11 -8 20 -20 20 -27
0 -17 126 -143 143 -143 7 0 19 -9 27 -20 8 -11 22 -20 32 -20 10 0 18 -4 18
-10 0 -5 9 -10 20 -10 11 0 20 -4 20 -10 0 -5 9 -10 20 -10 11 0 20 -4 20 -10
0 -5 14 -10 30 -10 17 0 30 -4 30 -10 0 -5 18 -10 40 -10 22 0 40 -4 40 -10 0
-6 60 -10 160 -10 100 0 160 4 160 10 0 6 18 10 40 10 22 0 40 5 40 10 0 6 14
10 30 10 17 0 30 5 30 10 0 6 9 10 20 10 11 0 20 5 20 10 0 6 9 10 20 10 11 0
20 5 20 10 0 6 8 10 18 10 10 0 24 9 32 20 8 11 20 20 27 20 17 0 103 86 103
103 0 7 9 19 20 27 11 8 20 22 20 32 0 10 5 18 10 18 6 0 10 9 10 20 0 11 5
20 10 20 6 0 10 9 10 20 0 11 5 20 10 20 6 0 10 14 10 30 l0 30 -180 0 c-155
0 -180 -2 -180 -15 0 -20 -65 -85 -85 -85 -8 0 -15 -4 -15 -10 0 -5 -9 -10
-20 -10 -11 0 -20 -4 -20 -10 0 -5 -18 -10 -40 -10 -22 0 -40 -4 -40 -10 0 -6
-30 -10 -70 -10 -40 0 -70 4 -70 10 0 6 -18 10 -40 10 -22 0 -40 5 -40 10 0 6
-7 10 -16 10 -9 0 -29 14 -44 30 -15 17 -33 30 -40 30 -16 0 -40 26 -40 44 0
9 -4 16 -10 16 -5 0 -10 8 -10 18 0 10 -9 24 -20 32 -14 10 -20 26 -20 52 0
21 -4 38 -10 38 -5 0 -10 18 -10 40 0 22 5 40 10 40 6 0 10 -4 10 -10 0 -5 9
-10 20 -10 11 0 20 5 20 10 0 6 18 10 40 10 22 0 40 -4 40 -10 0 -6 127 -10
360 -10 233 0 360 4 360 10 0 6 9 10 20 10 11 0 20 -4 20 -10 0 -5 9 -10 20
-10 11 0 20 5 20 10 0 6 30 10 70 10 l70 0 0 90 c0 53 -4 90 -10 90 -6 0 -10
27 -10 60 0 33 -4 60 -10 60 -5 0 -10 14 -10 30 0 17 -4 30 -10 30 -5 0 -10
14 -10 30 0 17 -4 30 -10 30 -5 0 -10 9 -10 20 0 11 -4 20 -10 20 -5 0 -10 9
-10 20 0 11 -4 20 -10 20 -5 0 -10 9 -10 20 0 11 -4 20 -10 20 -5 0 -10 7 -10
15 0 19 -164 185 -183 185 -7 0 -19 9 -27 20 -8 11 -22 20 -32 20 -10 0 -18 5
-18 10 0 6 -9 10 -20 10 -11 0 -20 5 -20 10 0 6 -13 10 -30 10 -16 0 -30 5
-30 10 0 6 -18 10 -40 10 -22 0 -40 5 -40 10 0 6 -60 10 -160 10 -100 0 -160
-4 -160 -10z m260 -300 c0 -5 14 -10 30 -10 17 0 30 -4 30 -10 0 -5 7 -10 15
-10 20 0 105 -85 105 -105 0 -8 5 -15 10 -15 6 0 10 -9 10 -20 0 -11 5 -20 10
-20 6 0 10 -13 10 -30 0 -16 5 -30 10 -30 6 0 10 -9 10 -20 0 -20 -7 -20 -330
-20 l-330 0 0 40 c0 22 5 40 10 40 6 0 10 9 10 20 0 11 5 20 10 20 6 0 10 7
10 15 0 20 105 125 125 125 8 0 15 5 15 10 0 6 14 10 30 10 17 0 30 5 30 10 0
6 37 10 90 10 53 0 90 -4 90 -10z"/>
<path d="M21120 1950 c0 -5 -13 -10 -30 -10 -16 0 -30 -4 -30 -10 0 -5 -9 -10
-20 -10 -11 0 -20 -4 -20 -10 0 -5 -8 -10 -18 -10 -10 0 -24 -9 -32 -20 -8
-11 -20 -20 -28 -20 -17 0 -62 -45 -62 -62 0 -8 -9 -20 -20 -28 -11 -8 -20
-22 -20 -32 0 -10 -4 -18 -10 -18 -6 0 -10 39 -10 96 0 69 -4 99 -14 110 -12
11 -50 14 -180 14 l-166 0 0 -750 0 -750 186 0 c156 0 188 3 201 16 14 13 14
17 2 26 -11 7 -11 11 -1 15 15 6 17 143 2 143 -5 0 -10 9 -10 20 0 11 5 20 10
20 6 0 10 18 10 40 0 22 -4 40 -10 40 -5 0 -10 9 -10 20 0 11 5 20 10 20 14 0
12 37 -2 43 -10 4 -9 8 2 17 11 9 12 13 3 17 -7 2 -13 17 -13 33 0 16 6 31 13
33 9 4 8 8 -3 16 -13 10 -13 12 0 21 13 9 13 11 0 20 -13 9 -13 11 0 20 13 9
13 11 0 20 -13 9 -13 11 0 20 13 9 13 11 0 21 -11 8 -12 12 -2 16 14 6 16 43
2 43 -15 0 -12 77 3 83 9 4 8 8 -3 17 -11 9 -12 13 -2 17 8 3 12 26 12 64 0
33 4 59 10 59 6 0 10 13 10 28 0 16 8 34 20 42 11 8 20 20 20 28 0 17 25 42
42 42 8 0 20 9 28 20 8 11 22 20 32 20 10 0 18 5 18 10 0 6 23 10 50 10 28 0
50 5 50 10 0 6 23 10 50 10 28 0 50 -4 50 -10 0 -5 23 -10 50 -10 l50 0 0 190
0 190 -110 0 c-67 0 -110 -4 -110 -10z"/>
<path d="M8940 1390 c0 -360 3 -550 10 -550 6 0 10 -22 10 -50 0 -27 5 -50 10
-50 6 0 10 -9 10 -20 0 -11 5 -20 10 -20 6 0 10 -9 10 -20 0 -11 5 -20 10 -20
6 0 10 -7 10 -15 0 -20 105 -125 125 -125 8 0 15 -4 15 -10 0 -5 9 -10 20 -10
11 0 20 -4 20 -10 0 -5 9 -10 20 -10 11 0 20 -4 20 -10 0 -5 9 -10 20 -10 11
0 20 -4 20 -10 0 -5 18 -10 40 -10 22 0 40 -4 40 -10 0 -6 43 -10 110 -10 67
0 110 4 110 10 0 6 18 10 40 10 22 0 40 5 40 10 0 6 9 10 20 10 11 0 20 5 20
10 0 6 8 10 18 10 10 0 24 9 32 20 8 11 20 20 27 20 19 0 103 86 103 105 0 8
5 15 10 15 6 0 10 -13 10 -30 0 -16 5 -30 10 -30 6 0 10 -30 10 -70 l0 -70
180 0 180 0 0 736 c0 624 -2 738 -14 750 -12 11 -51 14 -190 14 l-176 0 0
-480 c0 -313 -3 -480 -10 -480 -5 0 -10 -13 -10 -30 0 -16 -4 -30 -10 -30 -5
0 -10 -7 -10 -15 0 -20 -105 -125 -125 -125 -8 0 -15 -4 -15 -10 0 -5 -13 -10
-30 -10 -16 0 -30 -4 -30 -10 0 -6 -30 -10 -70 -10 -40 0 -70 4 -70 10 0 6
-13 10 -30 10 -16 0 -30 5 -30 10 0 6 -7 10 -15 10 -26 0 -105 86 -105 115 0
14 -4 25 -10 25 -7 0 -10 177 -10 510 l0 510 -190 0 -190 0 0 -550z"/>
</g>
</svg>
